<svg width="24" height="24" viewBox="0 0 24 24" fill="none" xmlns="http://www.w3.org/2000/svg">
<g id="logos:messenger" clip-path="url(#clip0_172_301)">
<path id="Vector" d="M12 0C5.24006 0 0 4.95169 0 11.64C0 15.1385 1.43372 18.1614 3.76875 20.2495C3.96469 20.4249 4.083 20.6707 4.09106 20.9337L4.15641 23.0684C4.17731 23.7492 4.88053 24.1923 5.50359 23.9172L7.88541 22.8656C8.08728 22.7766 8.31368 22.76 8.52637 22.8187C9.62091 23.1196 10.7858 23.2799 12 23.2799C18.7599 23.2799 24 18.3282 24 11.6399C24 4.95159 18.7599 0 12 0Z" fill="url(#paint0_linear_172_301)"/>
<path id="Vector_2" d="M4.79409 15.0441L8.31909 9.45165C8.87971 8.56196 10.0805 8.34043 10.9218 8.97137L13.7254 11.0742C13.8506 11.1681 14.003 11.2186 14.1595 11.2182C14.316 11.2177 14.4681 11.1663 14.5927 11.0716L18.3791 8.19802C18.8844 7.81449 19.5442 8.41927 19.206 8.95599L15.681 14.5486C15.1203 15.4381 13.9194 15.6597 13.0782 15.0287L10.2745 12.9259C10.1493 12.8321 9.99698 12.7815 9.84051 12.782C9.68404 12.7825 9.53198 12.8339 9.40734 12.9285L5.62077 15.8021C5.11546 16.1855 4.45574 15.5808 4.79409 15.0441Z" fill="white"/>
</g>
<defs>
<linearGradient id="paint0_linear_172_301" x1="-2153.11" y1="2387.16" x2="3076.97" y2="2387.16" gradientUnits="userSpaceOnUse">
<stop stop-color="#0099FF"/>
<stop offset="0.276042" stop-color="#A033FF"/>
<stop offset="0.635417" stop-color="#FF5280"/>
<stop offset="0.90625" stop-color="#FF7061"/>
</linearGradient>
<clipPath id="clip0_172_301">
<rect width="24" height="24" fill="white"/>
</clipPath>
</defs>
</svg>
